<?xml version="1.0" encoding="UTF-8" standalone="no"?>
<!-- Created with Inkscape (http://www.inkscape.org/) -->

<svg
   width="14cm"
   height="4cm"
   viewBox="0 0 140 40.000001"
   version="1.1"
   id="svg5"
   xml:space="preserve"
   inkscape:export-filename="icon.png"
   inkscape:export-xdpi="300"
   inkscape:export-ydpi="300"
   inkscape:version="1.2.2 (b0a8486, 2022-12-01)"
   sodipodi:docname="uh.svg"
   xmlns:inkscape="http://www.inkscape.org/namespaces/inkscape"
   xmlns:sodipodi="http://sodipodi.sourceforge.net/DTD/sodipodi-0.dtd"
   xmlns="http://www.w3.org/2000/svg"
   xmlns:svg="http://www.w3.org/2000/svg"><sodipodi:namedview
     id="namedview7"
     pagecolor="#ffffff"
     bordercolor="#666666"
     borderopacity="1.0"
     inkscape:showpageshadow="2"
     inkscape:pageopacity="0.0"
     inkscape:pagecheckerboard="0"
     inkscape:deskcolor="#d1d1d1"
     inkscape:document-units="mm"
     showgrid="false"
     inkscape:lockguides="true"
     inkscape:zoom="0.5946522"
     inkscape:cx="-347.26181"
     inkscape:cy="521.31313"
     inkscape:window-width="2560"
     inkscape:window-height="1302"
     inkscape:window-x="1440"
     inkscape:window-y="505"
     inkscape:window-maximized="1"
     inkscape:current-layer="g3133" /><defs
     id="defs2" /><g
     inkscape:label="Layer 1"
     inkscape:groupmode="layer"
     id="layer1"><g
       id="g3133"
       transform="matrix(0.26458333,0,0,0.26458333,51.061777,48.185435)">
	<path
   d="m -23.857161,-83.671245 c -5.948028,-11.96265 -19.309541,-13.66057 -27.671253,-18.677155 -3.965346,-2.39252 -5.603216,-7.1776 -6.292822,-11.11369 -3.965364,0.38589 -10.516809,0.46306 -13.620134,-6.86888 -2.499892,-5.71119 -1.465456,-15.20413 -9.654771,-23.23068 -7.499676,-7.25476 -16.723426,-9.72447 -25.171349,-9.18422 10.344403,6.32864 6.292843,15.82156 -1.20685,15.82156 -10.51679,0 -13.4477,-11.49958 -28.7919,-11.49958 -3.5343,0 -6.63765,1.00332 -8.5341,2.161 8.62031,1.00332 10.6892,7.40912 13.36149,13.1975 2.15508,4.63069 5.94802,7.33195 11.55125,8.72115 -1.03444,0.54026 -3.44814,1.15768 -6.55145,1.15768 -6.81006,0 -11.46504,-3.24149 -16.37863,-7.795 -4.31016,-4.01329 -9.05134,-7.79503 -17.06823,-7.79503 -3.96537,0 -6.98247,1.15768 -8.01693,1.77511 4.39639,0.61743 10.86163,3.00995 10.86163,7.25475 0,3.6274 -4.39637,5.0166 -8.0169,1.54357 -3.96535,-3.85891 -9.65477,-6.79169 -16.03382,-6.79169 -3.18952,0 -6.37903,0.92614 -7.67209,2.161 7.5859,0.77178 12.15466,5.24812 16.89584,15.20413 2.6723,5.63401 6.46525,10.95932 16.03382,11.0365 4.31015,0.0773 10.51679,-1.85229 14.13732,1.31203 3.44814,3.00998 2.24129,6.946065 3.87916,10.110385 1.98267,4.01326 6.03422,6.09708 14.05112,6.48298 -6.63766,5.09377 -22.49904,2.00662 -27.92986,-3.16432 0.68965,12.96596 11.89606,24.54271 34.13651,19.14022 3.87914,-0.92615 6.63763,-0.38589 8.10309,3.16431 2.06889,4.862239 6.89627,5.711199 11.465043,5.170959 10.4306,-1.157669 16.637232,0.77178 22.671468,7.254761 1.293039,-10.88215 -7.154882,-17.21078 -12.499478,-20.22072 -5.086,-2.93278 -5.60321,-5.94273 -5.68942,-8.2581 3.70674,3.85892 8.44792,5.47967 13.447719,6.0971 8.620318,1.0805 14.82695,3.31868 18.102672,7.48631 0.948247,-11.88547 -12.758077,-14.58672 -14.482137,-19.6033 4.310158,2.54688 7.499673,3.47301 11.982247,3.16429 6.034236,-0.38589 13.275305,-4.70786 18.706106,3.70457 6.896256,-3.93608 15.861403,-2.54689 21.895639,1.0805 z m -74.738236,-16.13028 h -15.430393 v -14.123645 h 15.430393 z m -15.430393,-63.363415 h 15.430393 v -14.12364 h -15.430393 c 0,0 0,14.12364 0,14.12364 z m 15.430393,112.680375 h -15.430393 v 14.12364 h 15.430393 z m 110.426389,-44.06882 c 4.999782,0 8.361712,-2.54689 8.361712,-7.949365 v -11.80831 H 15.71014 v 12.03985 c 0,2.701225 -1.465464,4.013255 -3.792949,4.013255 -2.3274853,0 -3.7929405,-1.3892 -3.7929405,-4.090445 v -11.96266 H 3.6416768 v 11.88548 c 0,5.248115 3.189524,7.872195 8.1893152,7.872195 z m 11.206424,-0.30871 h 4.396366 v -11.731125 l 8.620326,11.731125 h 3.879144 V -114.31106 H 35.53689 v 11.34523 l -8.361721,-11.34523 h -4.137753 z m 20.17156,0 h 4.482571 v -19.448965 h -4.482571 z m 13.189099,0.15441 h 4.137756 l 7.327279,-19.603295 h -4.741179 l -4.568774,13.42905 -4.568773,-13.42905 h -4.913585 z m 12.67188,-0.15441 h 14.137336 v -3.6274 h -9.654767 v -4.321975 h 8.361719 v -3.62738 h -8.361719 v -4.16763 h 9.568564 v -3.6274 H 69.069955 c 0,-0.0773 0,19.371785 0,19.371785 z m 16.637231,0 h 4.48257 v -6.405805 h 2.844707 l 4.051554,6.405805 h 5.172193 l -4.654974,-7.254775 c 2.413694,-0.92614 4.051554,-2.77842 4.051554,-5.78838 v -0.0771 c 0,-1.92947 -0.68963,-3.47301 -1.810269,-4.47635 -1.379252,-1.23484 -3.361927,-1.85226 -5.948025,-1.85226 h -8.18931 z m 4.568772,-9.956005 v -5.86558 h 3.275724 c 2.327489,0 3.620538,1.00334 3.620538,2.93279 v 0 c 0,1.77509 -1.206846,2.93279 -3.534334,2.93279 z m 20.257762,10.187525 c 4.22396,0 7.32728,-2.23818 7.32728,-5.865545 v -0.0773 c 0,-3.00995 -2.06888,-4.47636 -5.86182,-5.78838 -3.36193,-1.23487 -4.13776,-1.77511 -4.13776,-2.85561 v 0 c 0,-1.00331 0.94824,-1.69792 2.4999,-1.69792 1.63786,0 3.27572,0.7718 4.65497,1.77511 l 2.4999,-3.08714 c -1.98268,-1.62074 -4.48257,-2.39252 -6.98247,-2.39252 -4.22395,0 -7.15487,2.31534 -7.15487,5.71118 v 0.0773 c 0,3.31866 2.4137,4.63071 6.20664,6.01992 3.10332,1.0805 3.70674,1.69792 3.70674,2.62406 v 0 c 0,1.157685 -1.03444,1.929455 -2.75851,1.929455 -2.15508,0 -3.96535,-1.08049 -5.4308,-2.160995 l -2.6723,2.932775 c 2.49989,2.00665 5.3446,2.8556 8.1031,2.8556 z m 9.05135,-0.23152 h 4.48256 v -19.448965 h -4.48256 z m 11.55123,0 h 4.48257 v -15.744385 h 5.51702 v -3.70458 H 125.7055 v 3.70458 h 5.4308 z m 17.32686,0 h 4.48257 v -7.717835 l 7.06867,-11.73113 h -4.99979 l -4.31017,7.64066 -4.31016,-7.64066 h -5.08599 l 7.06867,11.80831 z m 27.06782,0.30871 c 5.77562,0 9.82718,-4.09046 9.82718,-9.956005 v -0.30871 c 0,-5.78838 -4.05156,-9.87884 -9.82718,-9.87884 -5.77562,0 -9.82716,4.09046 -9.82716,9.95602 v 0.30871 c 0,5.865535 3.96535,9.878825 9.82716,9.878825 z m 0,-3.70457 c -3.01711,0 -5.25839,-2.392515 -5.25839,-6.251435 v -0.15442 c 0,-3.85893 2.15508,-6.25145 5.17219,-6.25145 3.01712,0 5.17219,2.39252 5.17219,6.25145 v 0.15442 c 0.0862,3.85892 -2.06887,6.251435 -5.08599,6.251435 z m 11.63745,3.39586 h 4.48257 v -7.717835 h 8.36171 v -3.70458 H 191.651 v -4.39917 h 9.48235 v -3.70455 h -14.05113 v 19.526135 z m 22.75766,0 h 4.48257 v -7.949375 h 7.15487 v 7.949375 h 4.48257 v -19.448965 h -4.48257 v 7.79502 h -7.15487 v -7.79502 h -4.48257 z m 19.39573,0 h 14.13733 v -3.6274 h -9.65475 v -4.321975 h 8.3617 v -3.62738 h -8.3617 v -4.16763 h 9.56856 v -3.6274 h -14.05114 z m 16.63723,0 h 13.27531 v -3.70458 h -8.79274 v -15.744385 h -4.48257 z m 22.06804,0.23152 c 4.22396,0 7.32728,-2.23818 7.32728,-5.865545 v -0.0773 c 0,-3.00995 -2.06889,-4.47636 -5.86183,-5.78838 -3.36192,-1.23487 -4.13775,-1.77511 -4.13775,-2.85561 v 0 c 0,-1.00331 0.94823,-1.69792 2.4999,-1.69792 1.63785,0 3.27572,0.7718 4.65497,1.77511 l 2.4999,-3.08714 c -1.98268,-1.62074 -4.48258,-2.39252 -7.06867,-2.39252 -4.22397,0 -7.15488,2.31534 -7.15488,5.71118 v 0.0773 c 0,3.31866 2.41369,4.63071 6.20663,6.01992 3.10333,1.0805 3.70674,1.69792 3.70674,2.62406 v 0 c 0,1.157685 -1.03443,1.929455 -2.84469,1.929455 -2.1551,0 -3.96536,-1.08049 -5.43081,-2.160995 l -2.6723,2.932775 c 2.5861,2.00665 5.51701,2.8556 8.27551,2.8556 z m 9.48236,-0.23152 h 4.48257 v -19.448965 h -4.48257 z m 7.7583,0 h 4.39636 v -11.731125 l 8.62032,11.731125 h 3.87915 v -19.448965 h -4.39636 v 11.34523 l -8.36173,-11.34523 h -4.13774 z m 20.17156,0 h 4.48257 v -5.711195 l 1.98267,-2.31535 5.43081,8.026545 h 5.2584 l -7.58589,-11.190875 7.32727,-8.25809 h -5.3446 l -7.15487,8.41244 v -8.41244 h -4.48256 z m 18.5337,0 h 4.48257 v -19.448965 h -4.48257 z"
   id="path3131"
   style="stroke-width:0.81566" />
</g></g></svg>
